<svg xmlns="http://www.w3.org/2000/svg" width="512" height="512"><path fill="#f9f4ef" d="M0 0h512v512H0z"/><path fill="#232323" d="M166.656 60.928c-35.84 0-67.925 8.022-96.256 24.064-28.33 16.043-50.688 38.912-67.072 68.608-16.043 29.354-24.064 63.829-24.064 103.423 0 60.075 15.36 107.52 46.08 142.336 30.72 34.475 75.094 51.713 133.12 51.713 17.068 0 31.403-1.194 43.009-3.584 11.946-2.048 24.747-4.95 38.4-8.705 1.707-.341 5.972-1.363 12.799-3.07 7.168-2.048 14.336-3.415 21.504-4.098l10.24-79.36-43.008-4.095-22.527 52.736c-5.803 5.462-12.97 9.727-21.504 12.8-8.192 2.73-19.968 4.097-35.328 4.097-32.086 0-56.492-15.532-73.217-46.594-16.725-31.061-25.088-71.166-25.088-120.318 0-50.859 8.703-89.6 26.111-116.225 17.75-26.965 41.132-40.449 70.145-40.449 14.336 0 26.112 1.197 35.328 3.586 9.216 2.39 15.702 5.46 19.457 9.215l15.871 73.217h47.104l5.633-105.473c-1.366 0-9.217-1.195-23.553-3.584-19.115-3.072-35.67-5.461-49.664-7.168-13.995-2.048-28.501-3.072-43.52-3.072zM513.28 153.6c-15.701 0-30.378 3.926-44.031 11.777-13.312 7.51-24.407 16.383-33.281 26.623-8.875 9.899-14.505 18.261-16.895 25.088h-1.537l1.537-41.473v-11.263l-12.8-10.24h-1.536l-79.361 10.751v35.328l32.77 9.217v201.729l-33.793 4.095v30.207H489.73v-30.207l-59.393-4.609V242.688c18.432-13.313 40.106-19.967 65.023-19.967 14.678 0 27.137 3.584 37.377 10.752v-76.801c-5.461-2.048-11.947-3.072-19.457-3.072z"/></svg>
