<svg xmlns="http://www.w3.org/2000/svg" width="512" height="512"><path fill="#f4ead1" d="M0 0h512v512H0z"/><path fill="#5a3428" d="M164.45 65.793c-104.193 0-167.682 70.655-167.682 187.135 0 116.48 64.257 193.281 167.681 193.281 104.192 0 141.823-62.721 150.783-133.121h-78.336c-6.912 38.656-32 71.68-74.751 71.68-51.712 0-83.2-38.657-83.2-130.817 0-91.392 31.488-126.719 83.2-126.719 42.752 0 67.84 27.647 74.751 66.303h78.336c-7.424-72.704-67.327-127.742-150.783-127.742zm339.26 105.47c-41.727 0-71.422 27.393-83.966 67.84v-62.718H347.81v264.703h74.752V296.19c0-35.584 22.526-59.135 81.406-54.015 3.584.256 8.193.513 11.265 1.793V172.8c-2.048-1.024-6.657-1.537-11.521-1.537z"/></svg>
